<svg width="303" height="95" viewBox="0 0 303 95" fill="none" xmlns="http://www.w3.org/2000/svg">
<path d="M97.736 38V21.2H99.2L106.88 34.304H106.112L113.72 21.2H115.184V38H113.48V23.864H113.888L106.88 35.864H106.04L98.984 23.864H99.44V38H97.736ZM125.434 38.12C124.218 38.12 123.122 37.848 122.146 37.304C121.186 36.744 120.426 35.984 119.866 35.024C119.306 34.048 119.026 32.936 119.026 31.688C119.026 30.424 119.306 29.312 119.866 28.352C120.426 27.392 121.186 26.64 122.146 26.096C123.106 25.552 124.202 25.28 125.434 25.28C126.682 25.28 127.786 25.552 128.746 26.096C129.722 26.64 130.482 27.392 131.026 28.352C131.586 29.312 131.866 30.424 131.866 31.688C131.866 32.936 131.586 34.048 131.026 35.024C130.482 35.984 129.722 36.744 128.746 37.304C127.77 37.848 126.666 38.12 125.434 38.12ZM125.434 36.608C126.346 36.608 127.154 36.408 127.858 36.008C128.562 35.592 129.114 35.016 129.514 34.28C129.93 33.528 130.138 32.664 130.138 31.688C130.138 30.696 129.93 29.832 129.514 29.096C129.114 28.36 128.562 27.792 127.858 27.392C127.154 26.976 126.354 26.768 125.458 26.768C124.562 26.768 123.762 26.976 123.058 27.392C122.354 27.792 121.794 28.36 121.378 29.096C120.962 29.832 120.754 30.696 120.754 31.688C120.754 32.664 120.962 33.528 121.378 34.28C121.794 35.016 122.354 35.592 123.058 36.008C123.762 36.408 124.554 36.608 125.434 36.608ZM141.777 25.28C142.801 25.28 143.697 25.48 144.465 25.88C145.249 26.264 145.857 26.856 146.289 27.656C146.737 28.456 146.961 29.464 146.961 30.68V38H145.257V30.848C145.257 29.52 144.921 28.52 144.249 27.848C143.593 27.16 142.665 26.816 141.465 26.816C140.569 26.816 139.785 27 139.113 27.368C138.457 27.72 137.945 28.24 137.577 28.928C137.225 29.6 137.049 30.416 137.049 31.376V38H135.345V25.4H136.977V28.856L136.713 28.208C137.113 27.296 137.753 26.584 138.633 26.072C139.513 25.544 140.561 25.28 141.777 25.28ZM155.547 38.12C154.363 38.12 153.451 37.8 152.811 37.16C152.171 36.52 151.851 35.616 151.851 34.448V22.616H153.555V34.352C153.555 35.088 153.739 35.656 154.107 36.056C154.491 36.456 155.035 36.656 155.739 36.656C156.491 36.656 157.115 36.44 157.611 36.008L158.211 37.232C157.875 37.536 157.467 37.76 156.987 37.904C156.523 38.048 156.043 38.12 155.547 38.12ZM149.595 26.816V25.4H157.395V26.816H149.595ZM164.697 38.12C163.657 38.12 162.673 37.976 161.745 37.688C160.817 37.384 160.089 37.008 159.561 36.56L160.329 35.216C160.841 35.6 161.497 35.936 162.297 36.224C163.097 36.496 163.937 36.632 164.817 36.632C166.017 36.632 166.881 36.448 167.409 36.08C167.937 35.696 168.201 35.192 168.201 34.568C168.201 34.104 168.049 33.744 167.745 33.488C167.457 33.216 167.073 33.016 166.593 32.888C166.113 32.744 165.577 32.624 164.985 32.528C164.393 32.432 163.801 32.32 163.209 32.192C162.633 32.064 162.105 31.88 161.625 31.64C161.145 31.384 160.753 31.04 160.449 30.608C160.161 30.176 160.017 29.6 160.017 28.88C160.017 28.192 160.209 27.576 160.593 27.032C160.977 26.488 161.537 26.064 162.273 25.76C163.025 25.44 163.937 25.28 165.009 25.28C165.825 25.28 166.641 25.392 167.457 25.616C168.273 25.824 168.945 26.104 169.473 26.456L168.729 27.824C168.169 27.44 167.569 27.168 166.929 27.008C166.289 26.832 165.649 26.744 165.009 26.744C163.873 26.744 163.033 26.944 162.489 27.344C161.961 27.728 161.697 28.224 161.697 28.832C161.697 29.312 161.841 29.688 162.129 29.96C162.433 30.232 162.825 30.448 163.305 30.608C163.801 30.752 164.337 30.872 164.913 30.968C165.505 31.064 166.089 31.184 166.665 31.328C167.257 31.456 167.793 31.64 168.273 31.88C168.769 32.104 169.161 32.432 169.449 32.864C169.753 33.28 169.905 33.832 169.905 34.52C169.905 35.256 169.697 35.896 169.281 36.44C168.881 36.968 168.289 37.384 167.505 37.688C166.737 37.976 165.801 38.12 164.697 38.12ZM178.384 38.12C177.072 38.12 175.92 37.848 174.928 37.304C173.936 36.744 173.16 35.984 172.6 35.024C172.04 34.048 171.76 32.936 171.76 31.688C171.76 30.44 172.024 29.336 172.552 28.376C173.096 27.416 173.832 26.664 174.76 26.12C175.704 25.56 176.76 25.28 177.928 25.28C179.112 25.28 180.16 25.552 181.072 26.096C182 26.624 182.728 27.376 183.256 28.352C183.784 29.312 184.048 30.424 184.048 31.688C184.048 31.768 184.04 31.856 184.024 31.952C184.024 32.032 184.024 32.12 184.024 32.216H173.056V30.944H183.112L182.44 31.448C182.44 30.536 182.24 29.728 181.84 29.024C181.456 28.304 180.928 27.744 180.256 27.344C179.584 26.944 178.808 26.744 177.928 26.744C177.064 26.744 176.288 26.944 175.6 27.344C174.912 27.744 174.376 28.304 173.992 29.024C173.608 29.744 173.416 30.568 173.416 31.496V31.76C173.416 32.72 173.624 33.568 174.04 34.304C174.472 35.024 175.064 35.592 175.816 36.008C176.584 36.408 177.456 36.608 178.432 36.608C179.2 36.608 179.912 36.472 180.568 36.2C181.24 35.928 181.816 35.512 182.296 34.952L183.256 36.056C182.696 36.728 181.992 37.24 181.144 37.592C180.312 37.944 179.392 38.12 178.384 38.12ZM187.517 38V25.4H189.149V28.832L188.981 28.232C189.333 27.272 189.925 26.544 190.757 26.048C191.589 25.536 192.621 25.28 193.853 25.28V26.936C193.789 26.936 193.725 26.936 193.661 26.936C193.597 26.92 193.533 26.912 193.469 26.912C192.141 26.912 191.101 27.32 190.349 28.136C189.597 28.936 189.221 30.08 189.221 31.568V38H187.517ZM196.962 38V25.4H198.594V28.832L198.426 28.232C198.778 27.272 199.37 26.544 200.202 26.048C201.034 25.536 202.066 25.28 203.298 25.28V26.936C203.234 26.936 203.17 26.936 203.106 26.936C203.042 26.92 202.978 26.912 202.914 26.912C201.586 26.912 200.546 27.32 199.794 28.136C199.042 28.936 198.666 30.08 198.666 31.568V38H196.962ZM213.366 38V35.216L213.294 34.76V30.104C213.294 29.032 212.99 28.208 212.382 27.632C211.79 27.056 210.902 26.768 209.718 26.768C208.902 26.768 208.126 26.904 207.39 27.176C206.654 27.448 206.03 27.808 205.518 28.256L204.75 26.984C205.39 26.44 206.158 26.024 207.054 25.736C207.95 25.432 208.894 25.28 209.886 25.28C211.518 25.28 212.774 25.688 213.654 26.504C214.55 27.304 214.998 28.528 214.998 30.176V38H213.366ZM209.022 38.12C208.078 38.12 207.254 37.968 206.55 37.664C205.862 37.344 205.334 36.912 204.966 36.368C204.598 35.808 204.414 35.168 204.414 34.448C204.414 33.792 204.566 33.2 204.87 32.672C205.19 32.128 205.702 31.696 206.406 31.376C207.126 31.04 208.086 30.872 209.286 30.872H213.63V32.144H209.334C208.118 32.144 207.27 32.36 206.79 32.792C206.326 33.224 206.094 33.76 206.094 34.4C206.094 35.12 206.374 35.696 206.934 36.128C207.494 36.56 208.278 36.776 209.286 36.776C210.246 36.776 211.07 36.56 211.758 36.128C212.462 35.68 212.974 35.04 213.294 34.208L213.678 35.384C213.358 36.216 212.798 36.88 211.998 37.376C211.214 37.872 210.222 38.12 209.022 38.12ZM223.61 38.12C222.426 38.12 221.514 37.8 220.874 37.16C220.234 36.52 219.914 35.616 219.914 34.448V22.616H221.618V34.352C221.618 35.088 221.802 35.656 222.17 36.056C222.554 36.456 223.098 36.656 223.802 36.656C224.554 36.656 225.178 36.44 225.674 36.008L226.274 37.232C225.938 37.536 225.53 37.76 225.05 37.904C224.586 38.048 224.106 38.12 223.61 38.12ZM217.658 26.816V25.4H225.458V26.816H217.658ZM97.736 67V50.2H104.024C105.448 50.2 106.672 50.432 107.696 50.896C108.72 51.344 109.504 52 110.048 52.864C110.608 53.712 110.888 54.744 110.888 55.96C110.888 57.144 110.608 58.168 110.048 59.032C109.504 59.88 108.72 60.536 107.696 61C106.672 61.448 105.448 61.672 104.024 61.672H98.72L99.512 60.856V67H97.736ZM109.208 67L104.888 60.904H106.808L111.152 67H109.208ZM99.512 61L98.72 60.16H103.976C105.656 60.16 106.928 59.792 107.792 59.056C108.672 58.32 109.112 57.288 109.112 55.96C109.112 54.616 108.672 53.576 107.792 52.84C106.928 52.104 105.656 51.736 103.976 51.736H98.72L99.512 50.896V61ZM114.72 67V54.4H116.424V67H114.72ZM115.584 51.616C115.232 51.616 114.936 51.496 114.696 51.256C114.456 51.016 114.336 50.728 114.336 50.392C114.336 50.056 114.456 49.776 114.696 49.552C114.936 49.312 115.232 49.192 115.584 49.192C115.936 49.192 116.232 49.304 116.472 49.528C116.712 49.752 116.832 50.032 116.832 50.368C116.832 50.72 116.712 51.016 116.472 51.256C116.248 51.496 115.952 51.616 115.584 51.616ZM124.405 67L118.813 54.4H120.589L125.725 66.088H124.885L130.093 54.4H131.773L126.157 67H124.405ZM139.173 67.12C137.861 67.12 136.709 66.848 135.717 66.304C134.725 65.744 133.949 64.984 133.389 64.024C132.829 63.048 132.549 61.936 132.549 60.688C132.549 59.44 132.813 58.336 133.341 57.376C133.885 56.416 134.621 55.664 135.549 55.12C136.493 54.56 137.549 54.28 138.717 54.28C139.901 54.28 140.949 54.552 141.861 55.096C142.789 55.624 143.517 56.376 144.045 57.352C144.573 58.312 144.837 59.424 144.837 60.688C144.837 60.768 144.829 60.856 144.813 60.952C144.813 61.032 144.813 61.12 144.813 61.216H133.845V59.944H143.901L143.229 60.448C143.229 59.536 143.029 58.728 142.629 58.024C142.245 57.304 141.717 56.744 141.045 56.344C140.373 55.944 139.597 55.744 138.717 55.744C137.853 55.744 137.077 55.944 136.389 56.344C135.701 56.744 135.165 57.304 134.781 58.024C134.397 58.744 134.205 59.568 134.205 60.496V60.76C134.205 61.72 134.413 62.568 134.829 63.304C135.261 64.024 135.853 64.592 136.605 65.008C137.373 65.408 138.245 65.608 139.221 65.608C139.989 65.608 140.701 65.472 141.357 65.2C142.029 64.928 142.605 64.512 143.085 63.952L144.045 65.056C143.485 65.728 142.781 66.24 141.933 66.592C141.101 66.944 140.181 67.12 139.173 67.12ZM148.306 67V54.4H149.938V57.832L149.77 57.232C150.122 56.272 150.714 55.544 151.546 55.048C152.378 54.536 153.41 54.28 154.642 54.28V55.936C154.578 55.936 154.514 55.936 154.45 55.936C154.386 55.92 154.322 55.912 154.258 55.912C152.93 55.912 151.89 56.32 151.138 57.136C150.386 57.936 150.01 59.08 150.01 60.568V67H148.306ZM161.276 67.12C160.236 67.12 159.252 66.976 158.324 66.688C157.396 66.384 156.668 66.008 156.14 65.56L156.908 64.216C157.42 64.6 158.076 64.936 158.876 65.224C159.676 65.496 160.516 65.632 161.396 65.632C162.596 65.632 163.46 65.448 163.988 65.08C164.516 64.696 164.78 64.192 164.78 63.568C164.78 63.104 164.628 62.744 164.324 62.488C164.036 62.216 163.652 62.016 163.172 61.888C162.692 61.744 162.156 61.624 161.564 61.528C160.972 61.432 160.38 61.32 159.788 61.192C159.212 61.064 158.684 60.88 158.204 60.64C157.724 60.384 157.332 60.04 157.028 59.608C156.74 59.176 156.596 58.6 156.596 57.88C156.596 57.192 156.788 56.576 157.172 56.032C157.556 55.488 158.116 55.064 158.852 54.76C159.604 54.44 160.516 54.28 161.588 54.28C162.404 54.28 163.22 54.392 164.036 54.616C164.852 54.824 165.524 55.104 166.052 55.456L165.308 56.824C164.748 56.44 164.148 56.168 163.508 56.008C162.868 55.832 162.228 55.744 161.588 55.744C160.452 55.744 159.612 55.944 159.068 56.344C158.54 56.728 158.276 57.224 158.276 57.832C158.276 58.312 158.42 58.688 158.708 58.96C159.012 59.232 159.404 59.448 159.884 59.608C160.38 59.752 160.916 59.872 161.492 59.968C162.084 60.064 162.668 60.184 163.244 60.328C163.836 60.456 164.372 60.64 164.852 60.88C165.348 61.104 165.74 61.432 166.028 61.864C166.332 62.28 166.484 62.832 166.484 63.52C166.484 64.256 166.276 64.896 165.86 65.44C165.46 65.968 164.868 66.384 164.084 66.688C163.316 66.976 162.38 67.12 161.276 67.12Z" fill="black"/>
<path d="M56.6357 11.585C57.1858 11.0465 58.1125 11.3055 58.3038 12.0511L74.0354 73.3692C74.2267 74.1149 73.5391 74.788 72.7977 74.5808L11.8289 57.5458C11.0875 57.3386 10.8483 56.4065 11.3984 55.868L56.6357 11.585Z" fill="#007880"/>
<path d="M80.9316 18.1405C80.9316 17.5883 80.4839 17.1405 79.9316 17.1405L70.9316 17.1405C70.3793 17.1405 69.9316 17.5883 69.9316 18.1405C69.9316 18.6928 70.3793 19.1405 70.9316 19.1405L78.9316 19.1405L78.9316 27.1405C78.9316 27.6928 79.3793 28.1405 79.9316 28.1405C80.4839 28.1405 80.9316 27.6928 80.9316 27.1405L80.9316 18.1405ZM21.6821 77.8043L80.6387 18.8476L79.2245 17.4334L20.2678 76.3901L21.6821 77.8043Z" fill="#003235"/>
</svg>
